<mxfile host="app.diagrams.net" modified="2023-06-06T12:25:40.531Z" agent="Mozilla/5.0 (Windows NT 10.0; Win64; x64) AppleWebKit/537.36 (KHTML, like Gecko) Chrome/112.0.0.0 Safari/537.36 Edg/112.0.1722.64" etag="_B6gzSR-6InV1es6Q6Mp" version="21.3.7" type="github">
  <diagram name="第 1 页" id="s3oTunyB3KDhZ0i60Cgs">
    <mxGraphModel dx="1066" dy="691" grid="1" gridSize="10" guides="1" tooltips="1" connect="1" arrows="1" fold="1" page="1" pageScale="1" pageWidth="2336" pageHeight="1654" math="0" shadow="0">
      <root>
        <mxCell id="0" />
        <mxCell id="1" parent="0" />
        <mxCell id="Tq3w3RR_pZMbWhS-tmrO-21" value="CP" style="shape=trapezoid;perimeter=trapezoidPerimeter;whiteSpace=wrap;html=1;fixedSize=1;rotation=90;size=40;" vertex="1" parent="1">
          <mxGeometry x="310" y="358.75" width="113.75" height="41.25" as="geometry" />
        </mxCell>
        <mxCell id="Tq3w3RR_pZMbWhS-tmrO-1" value="Heater" style="rounded=0;whiteSpace=wrap;html=1;" vertex="1" parent="1">
          <mxGeometry x="80" y="240" width="80" height="160" as="geometry" />
        </mxCell>
        <mxCell id="Tq3w3RR_pZMbWhS-tmrO-2" value="" style="verticalLabelPosition=bottom;verticalAlign=top;html=1;shape=mxgraph.basic.half_circle" vertex="1" parent="1">
          <mxGeometry x="80" y="400" width="80" height="40" as="geometry" />
        </mxCell>
        <mxCell id="Tq3w3RR_pZMbWhS-tmrO-3" value="" style="verticalLabelPosition=bottom;verticalAlign=top;html=1;shape=mxgraph.basic.half_circle;rotation=-180;" vertex="1" parent="1">
          <mxGeometry x="80" y="200" width="80" height="40" as="geometry" />
        </mxCell>
        <mxCell id="Tq3w3RR_pZMbWhS-tmrO-4" value="" style="ellipse;whiteSpace=wrap;html=1;aspect=fixed;" vertex="1" parent="1">
          <mxGeometry x="550" y="610" width="80" height="80" as="geometry" />
        </mxCell>
        <mxCell id="Tq3w3RR_pZMbWhS-tmrO-5" value="TB" style="shape=trapezoid;perimeter=trapezoidPerimeter;whiteSpace=wrap;html=1;fixedSize=1;rotation=90;size=40;" vertex="1" parent="1">
          <mxGeometry x="139" y="158.75" width="113.75" height="41.25" as="geometry" />
        </mxCell>
        <mxCell id="Tq3w3RR_pZMbWhS-tmrO-7" value="" style="edgeStyle=elbowEdgeStyle;elbow=horizontal;endArrow=classic;html=1;curved=0;rounded=0;endSize=8;startSize=8;exitX=0.5;exitY=1;exitDx=0;exitDy=0;exitPerimeter=0;entryX=0;entryY=1;entryDx=0;entryDy=0;" edge="1" parent="1" source="Tq3w3RR_pZMbWhS-tmrO-3" target="Tq3w3RR_pZMbWhS-tmrO-5">
          <mxGeometry width="50" height="50" relative="1" as="geometry">
            <mxPoint x="420" y="220" as="sourcePoint" />
            <mxPoint x="270" y="110" as="targetPoint" />
            <Array as="points">
              <mxPoint x="120" y="160" />
            </Array>
          </mxGeometry>
        </mxCell>
        <mxCell id="Tq3w3RR_pZMbWhS-tmrO-8" value="" style="edgeStyle=elbowEdgeStyle;elbow=horizontal;endArrow=classic;html=1;curved=0;rounded=0;endSize=8;startSize=8;entryX=0;entryY=0.25;entryDx=0;entryDy=0;exitX=0.33;exitY=0.158;exitDx=0;exitDy=0;exitPerimeter=0;" edge="1" parent="1" source="Tq3w3RR_pZMbWhS-tmrO-5" target="Tq3w3RR_pZMbWhS-tmrO-9">
          <mxGeometry width="50" height="50" relative="1" as="geometry">
            <mxPoint x="220" y="160" as="sourcePoint" />
            <mxPoint x="339" y="150" as="targetPoint" />
          </mxGeometry>
        </mxCell>
        <mxCell id="Tq3w3RR_pZMbWhS-tmrO-24" style="edgeStyle=orthogonalEdgeStyle;rounded=0;orthogonalLoop=1;jettySize=auto;html=1;exitX=0;exitY=0.75;exitDx=0;exitDy=0;entryX=0.5;entryY=1;entryDx=0;entryDy=0;entryPerimeter=0;" edge="1" parent="1" source="Tq3w3RR_pZMbWhS-tmrO-9" target="Tq3w3RR_pZMbWhS-tmrO-2">
          <mxGeometry relative="1" as="geometry">
            <Array as="points">
              <mxPoint x="240" y="175" />
              <mxPoint x="240" y="460" />
              <mxPoint x="120" y="460" />
            </Array>
          </mxGeometry>
        </mxCell>
        <mxCell id="Tq3w3RR_pZMbWhS-tmrO-9" value="HTR" style="rounded=0;whiteSpace=wrap;html=1;" vertex="1" parent="1">
          <mxGeometry x="270" y="130" width="120" height="60" as="geometry" />
        </mxCell>
        <mxCell id="Tq3w3RR_pZMbWhS-tmrO-10" value="" style="edgeStyle=elbowEdgeStyle;elbow=horizontal;endArrow=classic;html=1;curved=0;rounded=0;endSize=8;startSize=8;exitX=0.5;exitY=1;exitDx=0;exitDy=0;exitPerimeter=0;" edge="1" parent="1">
          <mxGeometry width="50" height="50" relative="1" as="geometry">
            <mxPoint x="390" y="148" as="sourcePoint" />
            <mxPoint x="470" y="148" as="targetPoint" />
          </mxGeometry>
        </mxCell>
        <mxCell id="Tq3w3RR_pZMbWhS-tmrO-11" value="LTR" style="rounded=0;whiteSpace=wrap;html=1;" vertex="1" parent="1">
          <mxGeometry x="470" y="130" width="120" height="60" as="geometry" />
        </mxCell>
        <mxCell id="Tq3w3RR_pZMbWhS-tmrO-13" value="Heat Regenerator" style="rounded=0;whiteSpace=wrap;html=1;" vertex="1" parent="1">
          <mxGeometry x="680" y="200" width="70" height="120" as="geometry" />
        </mxCell>
        <mxCell id="Tq3w3RR_pZMbWhS-tmrO-15" value="" style="edgeStyle=segmentEdgeStyle;endArrow=classic;html=1;curved=0;rounded=0;endSize=8;startSize=8;entryX=0.681;entryY=0.206;entryDx=0;entryDy=0;entryPerimeter=0;" edge="1" parent="1" target="Tq3w3RR_pZMbWhS-tmrO-21">
          <mxGeometry width="50" height="50" relative="1" as="geometry">
            <mxPoint x="690" y="140" as="sourcePoint" />
            <mxPoint x="390" y="400" as="targetPoint" />
            <Array as="points">
              <mxPoint x="760" y="140" />
              <mxPoint x="760" y="400" />
            </Array>
          </mxGeometry>
        </mxCell>
        <mxCell id="Tq3w3RR_pZMbWhS-tmrO-16" value="CP" style="shape=trapezoid;perimeter=trapezoidPerimeter;whiteSpace=wrap;html=1;fixedSize=1;rotation=90;size=40;" vertex="1" parent="1">
          <mxGeometry x="580" y="299.37" width="113.75" height="41.25" as="geometry" />
        </mxCell>
        <mxCell id="Tq3w3RR_pZMbWhS-tmrO-17" value="" style="edgeStyle=segmentEdgeStyle;endArrow=classic;html=1;curved=0;rounded=0;endSize=8;startSize=8;exitX=1;exitY=0.25;exitDx=0;exitDy=0;entryX=0.25;entryY=0;entryDx=0;entryDy=0;" edge="1" parent="1" source="Tq3w3RR_pZMbWhS-tmrO-11" target="Tq3w3RR_pZMbWhS-tmrO-13">
          <mxGeometry width="50" height="50" relative="1" as="geometry">
            <mxPoint x="700" y="180" as="sourcePoint" />
            <mxPoint x="530" y="410" as="targetPoint" />
            <Array as="points">
              <mxPoint x="590" y="140" />
              <mxPoint x="697" y="140" />
            </Array>
          </mxGeometry>
        </mxCell>
        <mxCell id="Tq3w3RR_pZMbWhS-tmrO-18" value="" style="edgeStyle=segmentEdgeStyle;endArrow=classic;html=1;curved=0;rounded=0;endSize=8;startSize=8;entryX=0.623;entryY=-0.052;entryDx=0;entryDy=0;entryPerimeter=0;exitX=0.25;exitY=1;exitDx=0;exitDy=0;" edge="1" parent="1" source="Tq3w3RR_pZMbWhS-tmrO-13" target="Tq3w3RR_pZMbWhS-tmrO-16">
          <mxGeometry width="50" height="50" relative="1" as="geometry">
            <mxPoint x="695" y="360" as="sourcePoint" />
            <mxPoint x="640" y="340" as="targetPoint" />
            <Array as="points">
              <mxPoint x="695" y="350" />
              <mxPoint x="660" y="350" />
            </Array>
          </mxGeometry>
        </mxCell>
        <mxCell id="Tq3w3RR_pZMbWhS-tmrO-19" value="" style="edgeStyle=segmentEdgeStyle;endArrow=classic;html=1;curved=0;rounded=0;endSize=8;startSize=8;exitX=0;exitY=1;exitDx=0;exitDy=0;entryX=1;entryY=0.75;entryDx=0;entryDy=0;" edge="1" parent="1" source="Tq3w3RR_pZMbWhS-tmrO-16" target="Tq3w3RR_pZMbWhS-tmrO-11">
          <mxGeometry width="50" height="50" relative="1" as="geometry">
            <mxPoint x="655" y="200" as="sourcePoint" />
            <mxPoint x="600" y="220" as="targetPoint" />
            <Array as="points">
              <mxPoint x="616" y="175" />
            </Array>
          </mxGeometry>
        </mxCell>
        <mxCell id="Tq3w3RR_pZMbWhS-tmrO-20" value="" style="edgeStyle=elbowEdgeStyle;elbow=horizontal;endArrow=classic;html=1;curved=0;rounded=0;endSize=8;startSize=8;exitX=0;exitY=0.75;exitDx=0;exitDy=0;entryX=1;entryY=0.75;entryDx=0;entryDy=0;" edge="1" parent="1" source="Tq3w3RR_pZMbWhS-tmrO-11" target="Tq3w3RR_pZMbWhS-tmrO-9">
          <mxGeometry width="50" height="50" relative="1" as="geometry">
            <mxPoint x="400" y="158" as="sourcePoint" />
            <mxPoint x="480" y="158" as="targetPoint" />
          </mxGeometry>
        </mxCell>
        <mxCell id="Tq3w3RR_pZMbWhS-tmrO-23" style="edgeStyle=orthogonalEdgeStyle;rounded=0;orthogonalLoop=1;jettySize=auto;html=1;exitX=0;exitY=1;exitDx=0;exitDy=0;" edge="1" parent="1" source="Tq3w3RR_pZMbWhS-tmrO-21">
          <mxGeometry relative="1" as="geometry">
            <mxPoint x="430" y="180" as="targetPoint" />
          </mxGeometry>
        </mxCell>
        <mxCell id="Tq3w3RR_pZMbWhS-tmrO-25" value="" style="shape=trapezoid;perimeter=trapezoidPerimeter;whiteSpace=wrap;html=1;fixedSize=1;rotation=90;size=40;" vertex="1" parent="1">
          <mxGeometry x="740" y="148.75" width="113.75" height="41.25" as="geometry" />
        </mxCell>
        <mxCell id="Tq3w3RR_pZMbWhS-tmrO-26" value="" style="edgeStyle=segmentEdgeStyle;endArrow=classic;html=1;curved=0;rounded=0;endSize=8;startSize=8;exitX=0.75;exitY=0;exitDx=0;exitDy=0;entryX=0;entryY=1;entryDx=0;entryDy=0;" edge="1" parent="1" source="Tq3w3RR_pZMbWhS-tmrO-13" target="Tq3w3RR_pZMbWhS-tmrO-25">
          <mxGeometry width="50" height="50" relative="1" as="geometry">
            <mxPoint x="600" y="155" as="sourcePoint" />
            <mxPoint x="705" y="210" as="targetPoint" />
            <Array as="points">
              <mxPoint x="720" y="200" />
              <mxPoint x="720" y="112" />
            </Array>
          </mxGeometry>
        </mxCell>
        <mxCell id="Tq3w3RR_pZMbWhS-tmrO-27" value="" style="rounded=0;whiteSpace=wrap;html=1;" vertex="1" parent="1">
          <mxGeometry x="1120" y="200" width="60" height="120" as="geometry" />
        </mxCell>
        <mxCell id="Tq3w3RR_pZMbWhS-tmrO-28" value="" style="edgeStyle=segmentEdgeStyle;endArrow=classic;html=1;curved=0;rounded=0;endSize=8;startSize=8;entryX=0.75;entryY=0;entryDx=0;entryDy=0;" edge="1" parent="1" target="Tq3w3RR_pZMbWhS-tmrO-27">
          <mxGeometry width="50" height="50" relative="1" as="geometry">
            <mxPoint x="820" y="150" as="sourcePoint" />
            <mxPoint x="1165" y="199.37" as="targetPoint" />
            <Array as="points">
              <mxPoint x="1165" y="150" />
            </Array>
          </mxGeometry>
        </mxCell>
      </root>
    </mxGraphModel>
  </diagram>
</mxfile>
